<svg id="svg" version="1.1" xmlns="http://www.w3.org/2000/svg" xmlns:xlink="http://www.w3.org/1999/xlink" width="400" height="120.45690550363447" viewBox="0, 0, 400,120.45690550363447"><g id="svgg"><path id="path0" d="M256.667 0.274 C 253.207 1.012,250.783 2.168,247.000 4.883 C 242.906 7.822,241.108 9.240,238.833 11.325 L 237.250 12.777 235.950 11.666 C 231.749 8.079,225.666 6.145,221.300 7.008 C 217.975 7.665,216.377 8.356,213.333 10.453 C 211.110 11.985,205.918 15.973,204.667 17.110 C 204.346 17.402,203.896 17.802,203.667 18.000 C 199.098 21.934,195.820 26.608,193.774 32.106 C 192.466 35.622,191.869 43.758,192.663 47.250 C 193.211 49.661,193.391 50.370,193.783 51.667 C 196.211 59.698,203.583 69.184,211.917 75.000 C 212.490 75.400,213.569 76.187,213.917 76.460 C 218.742 80.236,231.769 86.393,233.280 85.611 C 234.094 85.189,235.894 83.685,239.498 80.417 C 240.003 79.958,240.454 79.543,240.500 79.494 C 240.980 78.983,242.908 77.500,243.093 77.500 C 243.471 77.500,243.374 77.200,242.958 77.084 C 242.752 77.026,242.433 76.918,242.250 76.842 C 242.067 76.767,240.904 76.309,239.667 75.824 C 236.831 74.712,233.154 72.988,233.259 72.819 C 233.302 72.749,233.618 72.601,233.961 72.491 C 234.688 72.258,240.163 69.597,241.500 68.826 C 243.417 67.721,245.587 66.422,245.667 66.330 C 245.713 66.278,246.275 65.907,246.917 65.507 C 248.166 64.727,252.409 61.728,253.272 61.014 C 253.559 60.777,254.337 60.171,255.001 59.667 C 261.808 54.499,267.428 49.151,270.677 44.750 C 271.083 44.200,271.453 43.712,271.500 43.667 C 271.546 43.621,271.802 43.246,272.068 42.833 C 272.334 42.421,272.689 41.883,272.855 41.637 C 277.400 34.951,279.710 24.151,278.177 16.760 C 275.815 5.375,266.440 -1.810,256.667 0.274 M251.654 8.761 C 265.499 11.291,271.650 27.714,264.899 44.128 C 262.020 51.128,257.179 57.489,252.917 59.872 C 250.579 61.179,245.874 63.500,245.562 63.500 C 245.518 63.500,245.164 63.645,244.775 63.822 C 242.539 64.840,236.531 66.853,232.250 68.018 C 228.839 68.946,227.251 69.362,227.069 69.375 C 226.915 69.387,224.155 67.612,223.597 67.143 C 223.498 67.060,222.854 66.565,222.167 66.044 C 212.862 58.996,206.236 49.555,204.239 40.500 C 203.493 37.117,203.439 36.603,203.440 32.917 C 203.441 25.576,206.649 16.508,209.493 15.810 C 216.031 14.206,224.398 18.038,229.274 24.870 L 229.954 25.824 231.680 24.482 C 232.629 23.744,233.555 23.060,233.737 22.962 C 234.435 22.589,239.356 18.906,240.193 18.131 C 240.589 17.764,240.870 17.307,240.996 16.825 C 241.670 14.242,243.402 10.056,244.092 9.344 C 244.743 8.672,249.259 8.324,251.654 8.761 M206.333 75.960 C 205.829 76.190,205.004 76.561,204.500 76.785 C 196.389 80.388,183.295 90.301,176.915 97.671 C 174.700 100.229,171.568 105.377,170.580 108.083 C 170.413 108.542,170.221 108.992,170.153 109.083 C 169.510 109.959,166.973 119.718,167.266 120.192 C 167.306 120.257,167.582 120.063,167.878 119.760 C 168.336 119.292,170.034 118.124,175.833 114.292 C 177.522 113.176,178.087 112.429,178.326 111.000 C 178.441 110.313,178.570 109.638,178.614 109.500 C 178.658 109.362,178.795 108.763,178.919 108.167 C 179.746 104.188,181.106 100.387,183.021 96.710 C 183.919 94.985,185.256 92.711,185.497 92.500 C 185.549 92.454,186.002 91.856,186.504 91.171 C 189.024 87.731,189.897 87.088,195.500 84.537 C 198.707 83.076,204.657 81.029,209.250 79.806 C 209.617 79.708,210.104 79.565,210.333 79.487 C 210.563 79.410,211.031 79.298,211.375 79.238 C 212.235 79.089,212.197 79.026,210.542 77.876 C 209.740 77.319,208.671 76.566,208.167 76.203 L 207.250 75.543 206.333 75.960 " stroke="none" fill="#d42464" fill-rule="evenodd"></path><path id="path1" d="M27.167 3.337 C 19.278 4.084,10.828 9.183,6.043 16.083 C 5.471 16.908,4.942 17.658,4.868 17.750 C 4.745 17.901,3.498 20.161,3.177 20.813 C 2.413 22.364,1.619 24.590,1.090 26.667 C 0.938 27.262,0.747 28.012,0.665 28.333 C -0.107 31.379,-0.093 40.037,0.689 43.083 C 0.783 43.450,0.924 44.012,1.003 44.333 C 1.892 47.945,4.380 53.404,5.773 54.797 C 5.898 54.922,6.000 55.075,6.000 55.137 C 6.000 55.199,6.188 55.475,6.418 55.750 C 6.647 56.025,7.113 56.587,7.452 57.000 C 8.305 58.037,11.079 60.797,12.066 61.593 C 12.515 61.954,12.965 62.327,13.066 62.422 C 13.167 62.516,13.775 62.921,14.417 63.322 C 15.058 63.723,15.621 64.100,15.667 64.160 C 15.820 64.361,19.582 66.167,19.848 66.167 C 19.993 66.167,20.163 66.218,20.225 66.281 C 20.361 66.417,21.352 66.777,22.167 66.987 C 22.488 67.070,23.162 67.250,23.667 67.388 C 27.423 68.413,34.544 68.385,38.417 67.330 C 38.783 67.230,39.333 67.084,39.639 67.005 C 41.025 66.649,43.631 65.498,45.250 64.529 C 45.800 64.199,46.325 63.868,46.417 63.793 C 46.508 63.719,47.033 63.317,47.583 62.900 C 48.133 62.484,49.146 61.563,49.833 60.854 C 50.980 59.672,51.407 59.177,52.081 58.250 C 52.295 57.955,52.323 58.412,52.328 62.208 L 52.333 66.500 59.083 66.500 L 65.833 66.500 65.833 35.583 L 65.833 4.667 59.086 4.667 L 52.339 4.667 52.294 8.915 L 52.250 13.163 51.451 12.175 C 48.385 8.387,43.594 5.264,39.250 4.222 C 38.700 4.090,37.950 3.910,37.583 3.822 C 35.413 3.303,30.129 3.057,27.167 3.337 M115.917 3.333 C 113.859 3.557,111.469 4.192,109.833 4.950 C 106.790 6.360,104.291 8.374,102.302 11.021 L 101.667 11.867 101.667 8.267 L 101.667 4.667 94.917 4.667 L 88.167 4.667 88.167 35.583 L 88.167 66.500 94.917 66.500 L 101.667 66.500 101.667 48.632 C 101.667 29.147,101.708 28.130,102.619 25.250 C 103.085 23.780,103.813 22.114,104.028 22.028 C 104.104 21.997,104.167 21.880,104.167 21.768 C 104.167 21.656,104.373 21.307,104.625 20.993 C 110.749 13.366,122.536 14.257,125.659 22.583 C 126.629 25.170,126.559 23.475,126.620 45.875 L 126.675 66.500 133.497 66.500 L 140.318 66.500 140.386 47.292 C 140.460 26.319,140.415 27.315,141.410 24.417 C 143.489 18.361,148.673 15.233,155.411 15.969 C 156.355 16.072,157.343 16.244,157.605 16.351 C 157.868 16.459,158.346 16.654,158.667 16.786 C 161.509 17.950,163.744 20.474,164.683 23.583 C 164.876 24.225,165.120 24.975,165.225 25.250 C 165.362 25.612,165.428 31.392,165.463 46.125 L 165.511 66.500 172.262 66.500 L 179.013 66.500 178.956 44.958 C 178.915 29.729,178.844 23.221,178.712 22.750 C 178.609 22.383,178.401 21.483,178.249 20.750 C 178.097 20.017,177.914 19.267,177.843 19.083 C 177.771 18.900,177.579 18.337,177.417 17.833 C 176.892 16.203,175.375 13.233,174.708 12.529 C 174.592 12.407,174.417 12.157,174.319 11.973 C 173.927 11.240,171.516 8.733,170.417 7.915 C 170.050 7.642,169.712 7.374,169.667 7.320 C 169.047 6.587,165.064 4.670,163.000 4.112 C 162.496 3.976,161.783 3.782,161.417 3.681 C 159.106 3.044,151.888 3.098,149.500 3.771 C 148.996 3.913,148.321 4.094,148.000 4.174 C 146.216 4.618,142.995 6.226,141.927 7.204 C 141.749 7.367,141.538 7.500,141.458 7.500 C 141.179 7.500,138.385 10.425,137.598 11.541 L 136.805 12.666 135.662 11.088 C 134.700 9.761,133.406 8.349,132.250 7.366 C 131.834 7.012,129.041 5.167,128.922 5.167 C 128.861 5.167,128.406 4.981,127.910 4.754 C 127.415 4.527,126.801 4.297,126.546 4.241 C 126.292 4.186,125.933 4.074,125.750 3.993 C 124.399 3.394,118.806 3.018,115.917 3.333 M361.333 3.337 C 359.862 3.476,359.347 3.571,357.583 4.027 C 356.479 4.312,354.288 5.011,353.667 5.277 C 352.482 5.784,350.248 6.918,350.194 7.041 C 350.164 7.110,350.033 7.167,349.903 7.167 C 349.773 7.167,349.667 7.242,349.667 7.333 C 349.667 7.425,349.560 7.500,349.429 7.500 C 349.298 7.500,349.089 7.594,348.966 7.708 C 348.842 7.823,348.262 8.247,347.676 8.651 C 346.172 9.686,345.977 9.857,343.832 12.000 C 341.941 13.890,341.576 14.292,340.576 15.591 C 339.357 17.175,337.549 20.252,337.007 21.667 C 336.884 21.988,336.686 22.475,336.567 22.750 C 336.153 23.707,335.633 25.257,335.391 26.250 C 335.258 26.800,335.074 27.550,334.983 27.917 C 334.892 28.283,334.666 29.821,334.480 31.333 C 333.957 35.582,334.206 40.208,335.173 44.167 C 335.389 45.051,336.372 48.216,336.519 48.500 C 336.590 48.637,337.066 49.628,337.577 50.702 C 338.087 51.775,338.851 53.162,339.273 53.785 C 339.977 54.824,341.300 56.635,341.500 56.833 C 341.546 56.879,342.175 57.577,342.898 58.383 C 345.703 61.512,352.351 66.159,354.032 66.166 C 354.187 66.166,354.354 66.233,354.404 66.313 C 354.454 66.394,354.665 66.500,354.873 66.550 C 355.080 66.599,355.662 66.761,356.167 66.911 C 359.419 67.875,361.004 68.083,365.083 68.083 C 372.045 68.083,376.837 66.631,381.467 63.119 C 383.033 61.930,385.734 59.233,386.049 58.542 C 386.426 57.716,386.500 58.338,386.500 62.333 L 386.500 66.500 393.250 66.500 L 400.000 66.500 400.000 35.583 L 400.000 4.667 393.250 4.667 L 386.500 4.667 386.498 8.875 L 386.495 13.083 385.706 12.173 C 383.984 10.185,382.399 8.728,380.833 7.691 C 380.329 7.357,379.879 7.047,379.833 7.000 C 379.755 6.921,379.560 6.812,377.917 5.920 C 376.047 4.905,373.206 4.027,370.083 3.499 C 368.669 3.260,363.216 3.159,361.333 3.337 M324.500 3.783 C 322.014 3.974,319.134 4.584,316.250 5.532 C 315.297 5.845,311.509 7.618,311.333 7.832 C 311.287 7.888,310.953 8.115,310.589 8.336 C 309.434 9.039,307.675 10.613,306.737 11.784 C 305.575 13.234,305.640 13.142,305.250 13.882 L 304.917 14.514 304.873 9.591 L 304.828 4.667 298.081 4.667 L 291.333 4.667 291.333 35.583 L 291.333 66.500 298.083 66.500 L 304.833 66.500 304.833 50.542 C 304.834 31.028,304.869 30.514,306.437 27.037 C 306.655 26.553,306.833 26.085,306.833 25.995 C 306.833 25.906,306.908 25.833,307.000 25.833 C 307.092 25.833,307.167 25.753,307.167 25.656 C 307.167 25.049,310.010 22.130,311.333 21.379 C 314.578 19.538,320.091 18.333,325.277 18.333 L 328.000 18.333 328.000 11.000 L 328.000 3.667 326.625 3.696 C 325.869 3.712,324.912 3.751,324.500 3.783 M36.417 16.326 C 36.692 16.400,37.517 16.596,38.250 16.762 C 38.983 16.927,39.655 17.124,39.742 17.198 C 39.829 17.272,40.012 17.333,40.148 17.333 C 40.376 17.333,42.474 18.304,42.667 18.499 C 42.712 18.545,43.012 18.728,43.333 18.904 C 43.654 19.081,43.954 19.268,44.000 19.322 C 44.046 19.375,44.383 19.638,44.750 19.906 C 45.976 20.803,48.356 23.317,49.191 24.597 C 52.512 29.691,53.232 36.840,51.036 42.917 C 50.581 44.177,49.601 46.201,49.281 46.542 C 49.172 46.657,48.804 47.164,48.463 47.668 C 47.920 48.469,45.894 50.557,44.881 51.360 C 43.542 52.420,41.282 53.618,39.500 54.212 C 36.974 55.054,36.749 55.083,32.917 55.083 C 29.100 55.083,28.854 55.051,26.389 54.231 C 24.587 53.632,22.783 52.761,22.197 52.208 C 22.076 52.094,21.925 52.000,21.863 52.000 C 21.801 52.000,21.549 51.831,21.304 51.625 C 21.059 51.419,20.621 51.063,20.332 50.833 C 18.801 49.623,16.000 46.187,16.000 45.519 C 16.000 45.417,15.941 45.333,15.869 45.333 C 15.732 45.333,14.511 42.251,14.184 41.083 C 12.610 35.454,13.960 27.945,17.329 23.588 C 17.842 22.924,20.436 20.381,21.083 19.907 C 21.450 19.638,21.787 19.375,21.833 19.322 C 21.879 19.268,22.179 19.081,22.500 18.904 C 22.821 18.728,23.121 18.545,23.167 18.499 C 23.295 18.370,25.353 17.399,25.917 17.202 C 28.844 16.181,34.212 15.733,36.417 16.326 M371.083 16.423 C 377.823 17.798,383.527 22.710,385.397 28.750 C 385.567 29.300,385.767 29.938,385.842 30.167 C 387.436 35.054,385.721 44.904,382.824 47.500 C 382.773 47.546,382.604 47.771,382.449 48.000 C 381.917 48.785,379.640 50.978,378.696 51.614 C 378.177 51.964,377.661 52.335,377.550 52.439 C 377.439 52.543,376.764 52.905,376.049 53.243 C 374.270 54.086,374.174 54.126,373.417 54.335 C 373.050 54.436,372.337 54.642,371.833 54.793 C 370.674 55.141,363.827 55.208,362.750 54.882 C 359.137 53.788,358.267 53.426,356.444 52.260 C 354.565 51.058,352.122 48.653,351.063 46.962 C 350.818 46.571,350.569 46.212,350.510 46.167 C 350.282 45.989,349.033 43.200,348.757 42.250 C 348.597 41.700,348.402 41.063,348.325 40.833 C 346.899 36.620,348.287 27.724,350.858 24.593 C 350.938 24.496,351.321 24.004,351.710 23.500 C 356.190 17.692,363.754 14.929,371.083 16.423 " stroke="none" fill="#040404" fill-rule="evenodd"></path><path id="path2" d="" stroke="none" fill="#d81434" fill-rule="evenodd"></path><path id="path3" d="" stroke="none" fill="#3c1434" fill-rule="evenodd"></path><path id="path4" d="" stroke="none" fill="#041438" fill-rule="evenodd"></path></g></svg>